<?xml version="1.0" encoding="UTF-8" standalone="no"?>
<!-- Created with Inkscape (http://www.inkscape.org/) -->

<svg
   width="131.33327mm"
   height="125.25285mm"
   viewBox="0 0 131.33327 125.25285"
   version="1.1"
   id="svg2874"
   xmlns="http://www.w3.org/2000/svg"
   xmlns:svg="http://www.w3.org/2000/svg">
  <defs
     id="defs2871">
    <filter
       height="1.0000114"
       y="-5.718349e-06"
       width="1.0000109"
       x="-5.4535864e-06"
       id="filter863"
       style="color-interpolation-filters:sRGB">
      <feGaussianBlur
         id="feGaussianBlur865"
         stdDeviation="0.0003782305" />
    </filter>
  </defs>
  <g
     id="layer1"
     transform="translate(-16.861144,-77.724058)">
    <g
       style="opacity:0.994;filter:url(#filter863)"
       id="g42395"
       transform="matrix(0.78901549,0,0,0.78901549,16.861686,77.724771)">
      <g
         id="layer1-6"
         style="display:inline;fill:#0072b0;fill-opacity:0.968721"
         transform="translate(-101.71905,-226.02196)">
        <g
           id="g116"
           transform="matrix(0.26458333,0,0,0.26458333,73.620608,185.10247)"
           style="fill:#0072b0;fill-opacity:0.968721;stroke:none;stroke-width:2.26772;stroke-miterlimit:4;stroke-dasharray:none;paint-order:markers fill stroke">
          <g
             id="g42992"
             style="fill:#0072b0;fill-opacity:0.968721;stroke:none;stroke-opacity:1;paint-order:markers fill stroke">
            <g
               transform="matrix(0.908076,0,0,0.8416765,35.136853,81.131237)"
               style="fill:#0072b0;fill-opacity:0.968721;stroke:none;stroke-width:34.7152;stroke-miterlimit:4;stroke-dasharray:none;stroke-opacity:1;paint-order:markers fill stroke"
               id="g102">
              <g
                 style="fill:#0072b0;fill-opacity:0.968721;stroke:none;stroke-width:34.7152;stroke-miterlimit:4;stroke-dasharray:none;stroke-opacity:1;paint-order:markers fill stroke"
                 id="g100">
                <path
                   style="fill:#0072b0;fill-opacity:0.968721;stroke:none;stroke-width:34.7152;stroke-miterlimit:4;stroke-dasharray:none;stroke-opacity:1;paint-order:markers fill stroke"
                   d="m 691,161.6 c 0,16 0,32.1 0,48.1 0,38.5 0,77 0,115.5 0,46 0,92 0,138 0,38.9 0,77.9 0,116.8 0,17.2 0.1,34.4 0,51.6 0,5.6 -0.4,11.2 -1.1,16.7 0.5,-3.5 1,-7.1 1.4,-10.6 -1.5,11.2 -4.5,22.1 -8.8,32.5 1.3,-3.2 2.7,-6.4 4,-9.6 -4.3,10.2 -9.9,19.7 -16.5,28.5 2.1,-2.7 4.2,-5.4 6.3,-8.1 -7,9 -15.1,17.1 -24.1,24.1 2.7,-2.1 5.4,-4.2 8.1,-6.3 -8.8,6.7 -18.4,12.2 -28.5,16.5 3.2,-1.3 6.4,-2.7 9.6,-4 -10.5,4.3 -21.3,7.2 -32.5,8.8 3.5,-0.5 7.1,-1 10.6,-1.4 -15.6,2 -31.8,1.1 -47.5,1.1 -29,0 -57.9,0 -86.9,0 -35.8,0 -71.5,0 -107.3,0 -30.6,0 -61.2,0 -91.8,0 -13.1,0 -26.2,0.1 -39.3,0 -5.6,0 -11.1,-0.4 -16.7,-1.1 3.5,0.5 7.1,1 10.6,1.4 -11.2,-1.5 -22.1,-4.5 -32.5,-8.8 3.2,1.3 6.4,2.7 9.6,4 -10.2,-4.3 -19.7,-9.9 -28.5,-16.5 2.7,2.1 5.4,4.2 8.1,6.3 -9,-7 -17.1,-15.1 -24.1,-24.1 2.1,2.7 4.2,5.4 6.3,8.1 -6.7,-8.8 -12.2,-18.4 -16.5,-28.5 1.3,3.2 2.7,6.4 4,9.6 -4.3,-10.5 -7.2,-21.3 -8.8,-32.5 0.5,3.5 1,7.1 1.4,10.6 -2.4,-19 -1.1,-38.9 -1.1,-58 0,-37.3 0,-74.6 0,-111.9 0,-46.1 0,-92.2 0,-138.3 0,-40.2 0,-80.4 0,-120.6 0,-19.1 -0.2,-38.3 0,-57.4 0,-1.6 0.1,-3.2 0.3,-4.8 -0.5,3.5 -1,7.1 -1.4,10.6 0.5,-3.2 1.2,-6.1 2.4,-9.1 -1.3,3.2 -2.7,6.4 -4,9.6 1.3,-2.9 2.8,-5.4 4.7,-7.9 -2.1,2.7 -4.2,5.4 -6.3,8.1 1.7,-2 3.5,-3.9 5.6,-5.6 -2.7,2.1 -5.4,4.2 -8.1,6.3 2.5,-1.9 5.1,-3.4 7.9,-4.7 -3.2,1.3 -6.4,2.7 -9.6,4 3,-1.2 5.9,-2 9.1,-2.4 -3.5,0.5 -7.1,1 -10.6,1.4 5.9,-0.6 12,-0.3 17.9,-0.3 13.1,0 26.3,0 39.4,0 43.5,0 87,0 130.5,0 52.7,0 105.5,0 158.2,0 45.6,0 91.2,0 136.8,0 21.6,0 43.3,-0.1 64.9,0 1.6,0 3.2,0.1 4.9,0.3 -3.5,-0.5 -7.1,-1 -10.6,-1.4 3.2,0.5 6.1,1.2 9.1,2.4 -3.2,-1.3 -6.4,-2.7 -9.6,-4 2.9,1.3 5.4,2.8 7.9,4.7 -2.7,-2.1 -5.4,-4.2 -8.1,-6.3 2,1.7 3.9,3.5 5.6,5.6 -2.1,-2.7 -4.2,-5.4 -6.3,-8.1 1.9,2.5 3.4,5.1 4.7,7.9 -1.3,-3.2 -2.7,-6.4 -4,-9.6 1.2,3 2,5.9 2.4,9.1 -0.5,-3.5 -1,-7.1 -1.4,-10.6 0.1,1.5 0.2,2.8 0.2,4.3 0.2,10.4 4.3,20.9 11.7,28.3 6.9,6.9 18.3,12.2 28.3,11.7 21.3,-1 40.5,-17.6 40,-40 -0.7,-32.9 -22.8,-63.7 -55.4,-71.8 -6.9,-1.7 -14.1,-2.4 -21.2,-2.4 -8,0 -16.1,0 -24.1,0 -35.6,0 -71.2,0 -106.9,0 -49.4,0 -98.9,0 -148.3,0 -48.7,0 -97.3,0 -146,0 -32.8,0 -65.7,0 -98.5,0 -5.9,0 -11.9,-0.1 -17.8,0 -23.1,0.3 -44.4,10.5 -58.5,28.8 -10.5,13.6 -15.9,29.2 -16,46.5 -0.1,23.5 0,47.1 0,70.6 0,46.3 0,92.7 0,139 0,49.5 0,98.9 0,148.4 0,32.9 0,65.9 0,98.8 0,8.3 -0.2,16.6 0.6,24.8 2.3,24 8.4,46.2 19.8,67.6 9.2,17.3 22.2,33.6 37.2,46.2 31.4,26.4 69.6,41.7 110.9,41.8 8,0 15.9,0 23.9,0 42.2,0 84.4,0 126.6,0 48.1,0 96.2,0 144.3,0 29.9,0 60.2,1.6 89.8,-2.7 39.1,-5.7 77.2,-28.5 101.5,-59.5 14.5,-18.5 25.8,-38.5 32.1,-61.4 4,-14.6 6,-30 6,-45.1 0.1,-22 0,-44 0,-66 0,-45.9 0,-91.8 0,-137.7 0,-49.9 0,-99.8 0,-149.6 0,-33.8 0,-67.7 0,-101.5 0,-4.9 0,-9.9 0,-14.8 0,-20.9 -18.4,-41 -40,-40 -21.7,0.9 -40,17.5 -40,40 z"
                   id="path98" />
              </g>
            </g>
          </g>
        </g>
      </g>
      <path
         d="m 29.895677,118.94911 c -0.719238,-0.22246 -1.53381,-0.99502 -1.852055,-1.75662 -0.213785,-0.51151 -0.254456,-5.61562 -0.254456,-31.936072 0,-34.219862 -0.07059,-32.043732 1.071791,-33.004423 0.526454,-0.442856 4.147321,-1.955728 7.583502,-3.168506 l 1.419617,-0.501067 v -2.959131 c 0,-2.705017 0.03541,-3.029218 0.412147,-3.774831 0.615323,-1.217695 1.240089,-1.532796 4.116522,-2.076132 3.691563,-0.697324 4.590405,-0.816055 7.883496,-1.041348 10.561137,-0.722546 20.397573,2.243429 27.691473,8.349646 1.565368,1.310494 3.434787,3.185996 4.552129,4.566831 l 0.589443,0.728477 0.589418,-0.728477 c 1.117342,-1.380962 2.986761,-3.256337 4.552129,-4.566831 7.294027,-6.106217 17.130187,-9.072192 27.691457,-8.349646 3.29309,0.225293 4.19193,0.344024 7.88349,1.041348 2.8765,0.543348 3.5012,0.858463 4.11653,2.076132 0.37676,0.745587 0.41214,1.069802 0.41214,3.774831 v 2.959131 l 1.41962,0.501067 c 3.66799,1.294652 7.14397,2.747222 7.62457,3.186123 1.09677,1.001831 1.03072,-1.113856 1.03072,33.014563 0,30.905675 -0.004,31.365745 -0.36364,32.099565 -0.20001,0.40951 -0.65934,0.94469 -1.02075,1.1893 -1.09353,0.74012 -1.94699,0.63016 -5.24768,-0.67598 -8.2238,-3.25432 -16.95151,-5.70802 -23.95898,-6.73538 -2.70805,-0.39707 -8.282717,-0.55024 -10.532985,-0.2894 -4.644515,0.5383 -7.812514,1.83748 -10.463032,4.29081 -0.612143,0.56658 -1.311128,1.10545 -1.553328,1.19751 -0.571066,0.21706 -3.788646,0.21706 -4.359737,0 -0.242201,-0.0921 -0.941211,-0.63093 -1.553329,-1.19751 -2.650645,-2.45333 -5.818644,-3.75254 -10.463166,-4.29081 -2.250273,-0.26084 -7.824942,-0.10761 -10.533,0.2894 -6.95918,1.02035 -15.559898,3.43226 -23.90701,6.70432 -3.025543,1.18603 -3.715897,1.34941 -4.57735,1.08291 z m 3.765579,-4.77469 c 5.247299,-2.0551 12.88061,-4.4012 18.065552,-5.55214 5.648179,-1.25383 7.622411,-1.47184 13.33941,-1.47285 4.191426,-7.1e-4 5.377841,0.0565 6.490493,0.31266 0.748807,0.17243 1.396044,0.27897 1.438249,0.23675 0.131569,-0.13153 -1.612643,-1.16891 -3.715644,-2.20985 -7.266144,-3.59678 -16.340618,-4.45824 -26.010897,-2.46917 -0.979563,0.20151 -2.081075,0.36502 -2.447734,0.36336 -1.008637,-0.004 -2.061684,-0.6829 -2.54431,-1.63902 l -0.412147,-0.81635 V 52.618236 l -0.503742,0.123699 c -0.277066,0.06806 -1.698952,0.594602 -3.159887,1.170205 -2.034941,0.801771 -2.650772,1.12013 -2.633155,1.36119 0.01255,0.173077 0.03331,13.665132 0.04582,29.981669 0.01255,16.316541 0.04817,29.667421 0.07901,29.667421 0.03096,0 0.917004,-0.33713 1.969163,-0.74922 z m 101.060104,-29.232698 -0.0463,-29.981668 -2.83923,-1.137367 c -1.56157,-0.625552 -2.98359,-1.143273 -3.15989,-1.150485 -0.30375,-0.01267 -0.32058,1.253271 -0.32058,24.121201 v 24.135147 l -0.41213,0.81637 c -0.4827,0.9561 -1.53571,1.63445 -2.54431,1.63902 -0.36672,0.002 -1.46829,-0.16187 -2.44774,-0.36337 -10.63135,-2.18691 -20.42799,-0.93555 -28.161656,3.59703 -1.5039,0.8815 -1.982344,1.31202 -1.22099,1.09875 1.408717,-0.39462 4.463025,-0.66038 7.623536,-0.66341 5.32486,-0.004 10.22198,0.70805 17.08838,2.48843 3.53377,0.9163 10.87039,3.29678 14.01367,4.54683 1.10824,0.44083 2.11834,0.80928 2.24444,0.81878 0.18323,0.0138 0.22018,-6.03121 0.18318,-29.965258 z M 81.27756,82.94455 V 56.275871 l -0.858259,-1.213614 c -1.234564,-1.74572 -4.807891,-5.228415 -6.835354,-6.661847 -3.379148,-2.389307 -8.105165,-4.419558 -12.22701,-5.252749 -2.85926,-0.578011 -4.677729,-0.744839 -8.101109,-0.743242 -3.914372,0.0019 -6.887951,0.312174 -10.583443,1.104566 l -0.961692,0.206219 v 27.932279 c 0,23.75112 0.03814,27.917071 0.254228,27.83469 0.139832,-0.05361 1.273232,-0.265686 2.518709,-0.471182 11.068097,-1.8262 20.762584,-0.310121 29.08308,4.548599 1.878164,1.09659 4.652,3.23544 6.153492,4.74466 0.705233,0.7089 1.34408,1.29327 1.419617,1.29872 0.07554,0.005 0.137374,-11.990938 0.137374,-26.658585 z m 5.188745,25.36963 c 5.557686,-5.49092 13.490218,-8.995553 22.379775,-9.887551 3.81184,-0.382514 10.35569,-0.0038 14.32418,0.826904 0.67903,0.142304 1.29909,0.218957 1.37766,0.170314 0.0788,-0.04854 0.14311,-12.570603 0.14311,-27.827085 V 43.858395 l -0.46624,-0.177221 c -0.59822,-0.227384 -4.27153,-0.853658 -6.40305,-1.091677 -2.15851,-0.241047 -7.65485,-0.238347 -9.62173,0.0044 -5.7753,0.713713 -11.253635,2.757107 -15.564953,5.805717 -2.027464,1.433432 -5.600778,4.916127 -6.835355,6.661847 l -0.858259,1.213626 v 26.668679 c 0,14.667647 0.04755,26.668724 0.105638,26.668724 0.05809,0 0.696894,-0.58423 1.419617,-1.29834 z"
         fill="#df9100"
         fill-opacity="0.99216"
         stroke="#df9100"
         stroke-opacity="0.99216"
         stroke-width="3.80221"
         id="path14" />
    </g>
  </g>
</svg>
