<?xml version="1.0" encoding="UTF-8" standalone="no"?>
<!-- Created with Inkscape (http://www.inkscape.org/) -->

<svg
   width="131.33327mm"
   height="125.25285mm"
   viewBox="0 0 131.33327 125.25285"
   version="1.1"
   id="svg2874"
   xmlns="http://www.w3.org/2000/svg"
   xmlns:svg="http://www.w3.org/2000/svg">
  <defs
     id="defs2871">
    <filter
       height="1.0000114"
       y="-5.718349e-06"
       width="1.0000109"
       x="-5.4535864e-06"
       id="filter863"
       style="color-interpolation-filters:sRGB">
      <feGaussianBlur
         id="feGaussianBlur865"
         stdDeviation="0.0003782305" />
    </filter>
  </defs>
  <g
     id="layer1"
     transform="translate(-16.861144,-77.724058)">
    <g
       style="opacity:0.994;filter:url(#filter863)"
       id="g42395"
       transform="matrix(0.78901549,0,0,0.78901549,16.861686,77.724771)">
      <g
         id="layer1-6"
         style="display:inline;fill:#0072b0;fill-opacity:0.968721"
         transform="translate(-101.71905,-226.02196)">
        <g
           id="g116"
           transform="matrix(0.26458333,0,0,0.26458333,73.620608,185.10247)"
           style="fill:#0072b0;fill-opacity:0.968721;stroke:none;stroke-width:2.26772;stroke-miterlimit:4;stroke-dasharray:none;paint-order:markers fill stroke">
          <g
             id="g42992"
             style="fill:#0072b0;fill-opacity:0.968721;stroke:none;stroke-opacity:1;paint-order:markers fill stroke">
            <g
               transform="matrix(0.908076,0,0,0.8416765,35.136853,81.131237)"
               style="fill:#0072b0;fill-opacity:0.968721;stroke:none;stroke-width:34.7152;stroke-miterlimit:4;stroke-dasharray:none;stroke-opacity:1;paint-order:markers fill stroke"
               id="g102">
              <g
                 style="fill:#0072b0;fill-opacity:0.968721;stroke:none;stroke-width:34.7152;stroke-miterlimit:4;stroke-dasharray:none;stroke-opacity:1;paint-order:markers fill stroke"
                 id="g100">
                <path
                   style="fill:#0072b0;fill-opacity:0.968721;stroke:none;stroke-width:34.7152;stroke-miterlimit:4;stroke-dasharray:none;stroke-opacity:1;paint-order:markers fill stroke"
                   d="m 691,161.6 c 0,16 0,32.1 0,48.1 0,38.5 0,77 0,115.5 0,46 0,92 0,138 0,38.9 0,77.9 0,116.8 0,17.2 0.1,34.4 0,51.6 0,5.6 -0.4,11.2 -1.1,16.7 0.5,-3.5 1,-7.1 1.4,-10.6 -1.5,11.2 -4.5,22.1 -8.8,32.5 1.3,-3.2 2.7,-6.4 4,-9.6 -4.3,10.2 -9.9,19.7 -16.5,28.5 2.1,-2.7 4.2,-5.4 6.3,-8.1 -7,9 -15.1,17.1 -24.1,24.1 2.7,-2.1 5.4,-4.2 8.1,-6.3 -8.8,6.7 -18.4,12.2 -28.5,16.5 3.2,-1.3 6.4,-2.7 9.6,-4 -10.5,4.3 -21.3,7.2 -32.5,8.8 3.5,-0.5 7.1,-1 10.6,-1.4 -15.6,2 -31.8,1.1 -47.5,1.1 -29,0 -57.9,0 -86.9,0 -35.8,0 -71.5,0 -107.3,0 -30.6,0 -61.2,0 -91.8,0 -13.1,0 -26.2,0.1 -39.3,0 -5.6,0 -11.1,-0.4 -16.7,-1.1 3.5,0.5 7.1,1 10.6,1.4 -11.2,-1.5 -22.1,-4.5 -32.5,-8.8 3.2,1.3 6.4,2.7 9.6,4 -10.2,-4.3 -19.7,-9.9 -28.5,-16.5 2.7,2.1 5.4,4.2 8.1,6.3 -9,-7 -17.1,-15.1 -24.1,-24.1 2.1,2.7 4.2,5.4 6.3,8.1 -6.7,-8.8 -12.2,-18.4 -16.5,-28.5 1.3,3.2 2.7,6.4 4,9.6 -4.3,-10.5 -7.2,-21.3 -8.8,-32.5 0.5,3.5 1,7.1 1.4,10.6 -2.4,-19 -1.1,-38.9 -1.1,-58 0,-37.3 0,-74.6 0,-111.9 0,-46.1 0,-92.2 0,-138.3 0,-40.2 0,-80.4 0,-120.6 0,-19.1 -0.2,-38.3 0,-57.4 0,-1.6 0.1,-3.2 0.3,-4.8 -0.5,3.5 -1,7.1 -1.4,10.6 0.5,-3.2 1.2,-6.1 2.4,-9.1 -1.3,3.2 -2.7,6.4 -4,9.6 1.3,-2.9 2.8,-5.4 4.7,-7.9 -2.1,2.7 -4.2,5.4 -6.3,8.1 1.7,-2 3.5,-3.9 5.6,-5.6 -2.7,2.1 -5.4,4.2 -8.1,6.3 2.5,-1.9 5.1,-3.4 7.9,-4.7 -3.2,1.3 -6.4,2.7 -9.6,4 3,-1.2 5.9,-2 9.1,-2.4 -3.5,0.5 -7.1,1 -10.6,1.4 5.9,-0.6 12,-0.3 17.9,-0.3 13.1,0 26.3,0 39.4,0 43.5,0 87,0 130.5,0 52.7,0 105.5,0 158.2,0 45.6,0 91.2,0 136.8,0 21.6,0 43.3,-0.1 64.9,0 1.6,0 3.2,0.1 4.9,0.3 -3.5,-0.5 -7.1,-1 -10.6,-1.4 3.2,0.5 6.1,1.2 9.1,2.4 -3.2,-1.3 -6.4,-2.7 -9.6,-4 2.9,1.3 5.4,2.8 7.9,4.7 -2.7,-2.1 -5.4,-4.2 -8.1,-6.3 2,1.7 3.9,3.5 5.6,5.6 -2.1,-2.7 -4.2,-5.4 -6.3,-8.1 1.9,2.5 3.4,5.1 4.7,7.9 -1.3,-3.2 -2.7,-6.4 -4,-9.6 1.2,3 2,5.9 2.4,9.1 -0.5,-3.5 -1,-7.1 -1.4,-10.6 0.1,1.5 0.2,2.8 0.2,4.3 0.2,10.4 4.3,20.9 11.7,28.3 6.9,6.9 18.3,12.2 28.3,11.7 21.3,-1 40.5,-17.6 40,-40 -0.7,-32.9 -22.8,-63.7 -55.4,-71.8 -6.9,-1.7 -14.1,-2.4 -21.2,-2.4 -8,0 -16.1,0 -24.1,0 -35.6,0 -71.2,0 -106.9,0 -49.4,0 -98.9,0 -148.3,0 -48.7,0 -97.3,0 -146,0 -32.8,0 -65.7,0 -98.5,0 -5.9,0 -11.9,-0.1 -17.8,0 -23.1,0.3 -44.4,10.5 -58.5,28.8 -10.5,13.6 -15.9,29.2 -16,46.5 -0.1,23.5 0,47.1 0,70.6 0,46.3 0,92.7 0,139 0,49.5 0,98.9 0,148.4 0,32.9 0,65.9 0,98.8 0,8.3 -0.2,16.6 0.6,24.8 2.3,24 8.4,46.2 19.8,67.6 9.2,17.3 22.2,33.6 37.2,46.2 31.4,26.4 69.6,41.7 110.9,41.8 8,0 15.9,0 23.9,0 42.2,0 84.4,0 126.6,0 48.1,0 96.2,0 144.3,0 29.9,0 60.2,1.6 89.8,-2.7 39.1,-5.7 77.2,-28.5 101.5,-59.5 14.5,-18.5 25.8,-38.5 32.1,-61.4 4,-14.6 6,-30 6,-45.1 0.1,-22 0,-44 0,-66 0,-45.9 0,-91.8 0,-137.7 0,-49.9 0,-99.8 0,-149.6 0,-33.8 0,-67.7 0,-101.5 0,-4.9 0,-9.9 0,-14.8 0,-20.9 -18.4,-41 -40,-40 -21.7,0.9 -40,17.5 -40,40 z"
                   id="path98" />
              </g>
            </g>
          </g>
        </g>
      </g>
      <g
         transform="matrix(0.9602727,0,0,0.96045014,138.33857,-114.50511)"
         fill="none"
         stroke="#de9100"
         stroke-linecap="round"
         stroke-linejoin="round"
         stroke-opacity="0.99216"
         stroke-width="13.105"
         id="g20">
        <path
           d="m -97.14,161.26 47.247,40.254 -47.247,40.254"
           id="path16" />
        <path
           d="m -49.515,241.82 h 32.506"
           id="path18" />
      </g>
    </g>
  </g>
</svg>
