<?xml version="1.0" encoding="UTF-8" standalone="no"?>
<!-- Created with Inkscape (http://www.inkscape.org/) -->

<svg
   width="173.17975mm"
   height="125.25285mm"
   viewBox="0 0 173.17975 125.25285"
   version="1.1"
   id="svg2874"
   xmlns="http://www.w3.org/2000/svg"
   xmlns:svg="http://www.w3.org/2000/svg">
  <defs
     id="defs2871">
    <filter
       height="1.0000114"
       y="-5.718349e-06"
       width="1.0000083"
       x="-4.135803e-06"
       id="filter863"
       style="color-interpolation-filters:sRGB">
      <feGaussianBlur
         id="feGaussianBlur865"
         stdDeviation="0.0003782305" />
    </filter>
  </defs>
  <g
     id="layer1"
     transform="translate(-16.860971,-77.724058)">
    <g
       style="opacity:0.994;filter:url(#filter863)"
       id="g42395"
       transform="matrix(0.78901549,0,0,0.78901549,16.861686,77.724771)">
      <g
         style="stroke:#dd9200;stroke-width:8.87182;stroke-miterlimit:4;stroke-dasharray:none;stroke-opacity:0.996078"
         id="layer2"
         transform="translate(-101.71905,-226.02196)">
        <g
           id="g42237"
           style="display:inline;opacity:1;stroke:#dd9200;stroke-width:9.28854;stroke-miterlimit:4;stroke-dasharray:none;stroke-opacity:0.996078"
           transform="matrix(0.88726665,-0.35361401,0.35361401,0.88726665,-85.901331,96.52027)">
          <g
             id="g42244"
             transform="rotate(8.8978278,181.90104,307.85292)"
             style="stroke:#dd9200;stroke-width:9.28854;stroke-miterlimit:4;stroke-dasharray:none;stroke-opacity:0.996078">
            <path
               style="fill:none;stroke:#dd9200;stroke-width:9.28854;stroke-linecap:butt;stroke-linejoin:miter;stroke-miterlimit:4;stroke-dasharray:none;stroke-opacity:0.996078"
               d="m 167.21666,350.04375 v 0 l -0.52916,-97.36667 29.89791,12.7 0.52917,97.63125 -59.53125,-25.66458 v -64.82292 l 28.44496,12.312 60.19046,26.05259 v 32.27916 l -88.63542,-37.83541 v 0.26458"
               id="path42231" />
            <path
               style="fill:none;stroke:#dd9200;stroke-width:9.28854;stroke-linecap:butt;stroke-linejoin:miter;stroke-miterlimit:4;stroke-dasharray:none;stroke-opacity:0.996078"
               d="m 166.6875,252.67708 59.53125,25.66458 v 64.82292"
               id="path42233" />
          </g>
        </g>
      </g>
      <g
         id="layer1-6"
         style="display:inline;fill:#0072b0;fill-opacity:0.968721"
         transform="translate(-101.71905,-226.02196)">
        <g
           id="g116"
           transform="matrix(0.26458333,0,0,0.26458333,73.620608,185.10247)"
           style="fill:#0072b0;fill-opacity:0.968721;stroke:none;stroke-width:2.26772;stroke-miterlimit:4;stroke-dasharray:none;paint-order:markers fill stroke">
          <g
             id="g42992"
             style="fill:#0072b0;fill-opacity:0.968721;stroke:none;stroke-opacity:1;paint-order:markers fill stroke">
            <g
               transform="matrix(0.908076,0,0,0.8416765,35.136853,81.131237)"
               style="fill:#0072b0;fill-opacity:0.968721;stroke:none;stroke-width:34.7152;stroke-miterlimit:4;stroke-dasharray:none;stroke-opacity:1;paint-order:markers fill stroke"
               id="g102">
              <g
                 style="fill:#0072b0;fill-opacity:0.968721;stroke:none;stroke-width:34.7152;stroke-miterlimit:4;stroke-dasharray:none;stroke-opacity:1;paint-order:markers fill stroke"
                 id="g100">
                <path
                   style="fill:#0072b0;fill-opacity:0.968721;stroke:none;stroke-width:34.7152;stroke-miterlimit:4;stroke-dasharray:none;stroke-opacity:1;paint-order:markers fill stroke"
                   d="m 691,161.6 c 0,16 0,32.1 0,48.1 0,38.5 0,77 0,115.5 0,46 0,92 0,138 0,38.9 0,77.9 0,116.8 0,17.2 0.1,34.4 0,51.6 0,5.6 -0.4,11.2 -1.1,16.7 0.5,-3.5 1,-7.1 1.4,-10.6 -1.5,11.2 -4.5,22.1 -8.8,32.5 1.3,-3.2 2.7,-6.4 4,-9.6 -4.3,10.2 -9.9,19.7 -16.5,28.5 2.1,-2.7 4.2,-5.4 6.3,-8.1 -7,9 -15.1,17.1 -24.1,24.1 2.7,-2.1 5.4,-4.2 8.1,-6.3 -8.8,6.7 -18.4,12.2 -28.5,16.5 3.2,-1.3 6.4,-2.7 9.6,-4 -10.5,4.3 -21.3,7.2 -32.5,8.8 3.5,-0.5 7.1,-1 10.6,-1.4 -15.6,2 -31.8,1.1 -47.5,1.1 -29,0 -57.9,0 -86.9,0 -35.8,0 -71.5,0 -107.3,0 -30.6,0 -61.2,0 -91.8,0 -13.1,0 -26.2,0.1 -39.3,0 -5.6,0 -11.1,-0.4 -16.7,-1.1 3.5,0.5 7.1,1 10.6,1.4 -11.2,-1.5 -22.1,-4.5 -32.5,-8.8 3.2,1.3 6.4,2.7 9.6,4 -10.2,-4.3 -19.7,-9.9 -28.5,-16.5 2.7,2.1 5.4,4.2 8.1,6.3 -9,-7 -17.1,-15.1 -24.1,-24.1 2.1,2.7 4.2,5.4 6.3,8.1 -6.7,-8.8 -12.2,-18.4 -16.5,-28.5 1.3,3.2 2.7,6.4 4,9.6 -4.3,-10.5 -7.2,-21.3 -8.8,-32.5 0.5,3.5 1,7.1 1.4,10.6 -2.4,-19 -1.1,-38.9 -1.1,-58 0,-37.3 0,-74.6 0,-111.9 0,-46.1 0,-92.2 0,-138.3 0,-40.2 0,-80.4 0,-120.6 0,-19.1 -0.2,-38.3 0,-57.4 0,-1.6 0.1,-3.2 0.3,-4.8 -0.5,3.5 -1,7.1 -1.4,10.6 0.5,-3.2 1.2,-6.1 2.4,-9.1 -1.3,3.2 -2.7,6.4 -4,9.6 1.3,-2.9 2.8,-5.4 4.7,-7.9 -2.1,2.7 -4.2,5.4 -6.3,8.1 1.7,-2 3.5,-3.9 5.6,-5.6 -2.7,2.1 -5.4,4.2 -8.1,6.3 2.5,-1.9 5.1,-3.4 7.9,-4.7 -3.2,1.3 -6.4,2.7 -9.6,4 3,-1.2 5.9,-2 9.1,-2.4 -3.5,0.5 -7.1,1 -10.6,1.4 5.9,-0.6 12,-0.3 17.9,-0.3 13.1,0 26.3,0 39.4,0 43.5,0 87,0 130.5,0 52.7,0 105.5,0 158.2,0 45.6,0 91.2,0 136.8,0 21.6,0 43.3,-0.1 64.9,0 1.6,0 3.2,0.1 4.9,0.3 -3.5,-0.5 -7.1,-1 -10.6,-1.4 3.2,0.5 6.1,1.2 9.1,2.4 -3.2,-1.3 -6.4,-2.7 -9.6,-4 2.9,1.3 5.4,2.8 7.9,4.7 -2.7,-2.1 -5.4,-4.2 -8.1,-6.3 2,1.7 3.9,3.5 5.6,5.6 -2.1,-2.7 -4.2,-5.4 -6.3,-8.1 1.9,2.5 3.4,5.1 4.7,7.9 -1.3,-3.2 -2.7,-6.4 -4,-9.6 1.2,3 2,5.9 2.4,9.1 -0.5,-3.5 -1,-7.1 -1.4,-10.6 0.1,1.5 0.2,2.8 0.2,4.3 0.2,10.4 4.3,20.9 11.7,28.3 6.9,6.9 18.3,12.2 28.3,11.7 21.3,-1 40.5,-17.6 40,-40 -0.7,-32.9 -22.8,-63.7 -55.4,-71.8 -6.9,-1.7 -14.1,-2.4 -21.2,-2.4 -8,0 -16.1,0 -24.1,0 -35.6,0 -71.2,0 -106.9,0 -49.4,0 -98.9,0 -148.3,0 -48.7,0 -97.3,0 -146,0 -32.8,0 -65.7,0 -98.5,0 -5.9,0 -11.9,-0.1 -17.8,0 -23.1,0.3 -44.4,10.5 -58.5,28.8 -10.5,13.6 -15.9,29.2 -16,46.5 -0.1,23.5 0,47.1 0,70.6 0,46.3 0,92.7 0,139 0,49.5 0,98.9 0,148.4 0,32.9 0,65.9 0,98.8 0,8.3 -0.2,16.6 0.6,24.8 2.3,24 8.4,46.2 19.8,67.6 9.2,17.3 22.2,33.6 37.2,46.2 31.4,26.4 69.6,41.7 110.9,41.8 8,0 15.9,0 23.9,0 42.2,0 84.4,0 126.6,0 48.1,0 96.2,0 144.3,0 29.9,0 60.2,1.6 89.8,-2.7 39.1,-5.7 77.2,-28.5 101.5,-59.5 14.5,-18.5 25.8,-38.5 32.1,-61.4 4,-14.6 6,-30 6,-45.1 0.1,-22 0,-44 0,-66 0,-45.9 0,-91.8 0,-137.7 0,-49.9 0,-99.8 0,-149.6 0,-33.8 0,-67.7 0,-101.5 0,-4.9 0,-9.9 0,-14.8 0,-20.9 -18.4,-41 -40,-40 -21.7,0.9 -40,17.5 -40,40 z"
                   id="path98" />
              </g>
            </g>
            <g
               transform="matrix(0.908076,0,0,0.8416765,35.136853,81.131237)"
               style="fill:#0072b0;fill-opacity:0.968721;stroke:none;stroke-width:34.7152;stroke-miterlimit:4;stroke-dasharray:none;stroke-opacity:1;paint-order:markers fill stroke"
               id="g108">
              <g
                 style="fill:#0072b0;fill-opacity:0.968721;stroke:none;stroke-width:34.7152;stroke-miterlimit:4;stroke-dasharray:none;stroke-opacity:1;paint-order:markers fill stroke"
                 id="g106">
                <path
                   style="fill:#0072b0;fill-opacity:0.968721;stroke:none;stroke-width:34.7152;stroke-miterlimit:4;stroke-dasharray:none;stroke-opacity:1;paint-order:markers fill stroke"
                   d="m 911.6,345.8 c 0,35.4 0,70.8 0,106.2 0,9 -0.1,18 -1.3,27 0.5,-3.5 1,-7.1 1.4,-10.6 -1.8,12.5 -5.1,24.7 -9.9,36.3 1.3,-3.2 2.7,-6.4 4,-9.6 -4.9,11.4 -11.1,22 -18.6,31.9 2.1,-2.7 4.2,-5.4 6.3,-8.1 -7.8,10.1 -16.8,19.1 -26.9,26.9 2.7,-2.1 5.4,-4.2 8.1,-6.3 -9.8,7.5 -20.5,13.7 -31.9,18.6 3.2,-1.3 6.4,-2.7 9.6,-4 -11.7,4.9 -23.8,8.2 -36.3,9.9 3.5,-0.5 7.1,-1 10.6,-1.4 -12.3,1.6 -24.7,1.3 -37.2,1.3 -15.6,0 -31.2,0 -46.8,0 -3.9,0 -7.8,0 -11.7,0 13.3,13.3 26.7,26.7 40,40 0,-13.4 0,-26.7 0,-40.1 0,-32.1 0,-64.1 0,-96.2 0,-38.6 0,-77.3 0,-115.9 0,-33.5 0,-67.1 0,-100.6 0,-16.3 0.3,-32.6 0,-48.9 0,-0.2 0,-0.5 0,-0.7 -13.3,13.3 -26.7,26.7 -40,40 24.3,0 48.7,0 73,0 7.6,0 15.2,0.3 22.7,1.3 -3.5,-0.5 -7.1,-1 -10.6,-1.4 12.5,1.8 24.7,5.1 36.3,9.9 -3.2,-1.3 -6.4,-2.7 -9.6,-4 11.4,4.9 22,11.1 31.9,18.6 -2.7,-2.1 -5.4,-4.2 -8.1,-6.3 10.1,7.8 19.1,16.8 26.9,26.9 -2.1,-2.7 -4.2,-5.4 -6.3,-8.1 7.5,9.8 13.7,20.5 18.6,31.9 -1.3,-3.2 -2.7,-6.4 -4,-9.6 4.9,11.7 8.2,23.8 9.9,36.3 -0.5,-3.5 -1,-7.1 -1.4,-10.6 0.8,6.5 1.3,12.9 1.3,19.4 0,10.3 4.4,21 11.7,28.3 6.9,6.9 18.3,12.2 28.3,11.7 21.6,-1 40.1,-17.6 40,-40 -0.3,-63.5 -33.8,-122.6 -87.3,-156.5 -26.7,-16.9 -57.9,-25.9 -89.3,-27.5 -13.1,-0.7 -26.3,-0.2 -39.4,-0.2 -14.9,0 -29.7,0 -44.6,0 -21.6,0 -40,18.3 -40,40 0,13.4 0,26.7 0,40.1 0,32.1 0,64.1 0,96.2 0,38.6 0,77.3 0,115.9 0,33.5 0,67.1 0,100.6 0,16.3 -0.3,32.6 0,48.9 0,0.2 0,0.5 0,0.7 0,21.6 18.3,40 40,40 22.4,0 44.7,0 67.1,0 38.8,0 76.9,-8 109.6,-29.9 40.3,-27.1 71.2,-69.3 80.2,-117.6 4.8,-26 3.8,-52.1 3.8,-78.4 0,-24.1 0,-48.2 0,-72.2 0,-20.9 -18.4,-41 -40,-40 -21.8,0.9 -40.1,17.5 -40.1,39.9 z"
                   id="path104" />
              </g>
            </g>
          </g>
        </g>
      </g>
    </g>
  </g>
</svg>
